<svg width="103" height="176" viewBox="0 0 103 176" fill="none" xmlns="http://www.w3.org/2000/svg">
<path d="M72.9752 34.2483C83.5198 49.3906 88.1515 71.546 89.3426 90.6464M103.567 141.524C93.7568 129.368 91.3756 110.833 89.3426 90.6464M89.3426 90.6464C115.867 98.5959 130.832 102.735 163.244 90.6464M89.3426 90.6464C98.457 49.8487 119.776 40.8598 133.981 1.61768M89.3426 90.6464C68.4203 78.6688 32.761 83.7275 2.0498 69.5672M89.3426 90.6464C72.9752 92.4716 50.16 101.856 37.2645 108.75M89.3426 90.6464C81.6293 128.533 74.3805 147.453 50.16 172.235M89.3426 90.6464C109.044 99.949 121.207 110.132 133.981 126.808M89.3426 90.6464C98.3345 101.412 103.724 107.132 109.678 120.653M89.3426 90.6464C113.269 73.1128 124.736 62.3439 140.463 40.8598M89.3426 90.6464C88.8368 91.6995 71.15 126.808 27.2159 144.083M89.3426 90.6464C103.819 88.3188 119.514 85.0531 133.981 79.3269M89.3426 90.6464C86.9236 85.9439 79.2186 77.57 74.3491 72.424M161.364 63.4666C156.668 67.448 151.496 70.8552 146.008 73.7889M59.6333 52.1632C61.414 56.6151 64.2568 60.8274 67.5244 64.8472" stroke="#C18724" stroke-width="8.53089"/>
</svg>
