<svg width="66" height="73" viewBox="0 0 66 73" fill="none" xmlns="http://www.w3.org/2000/svg">
<path d="M24.4608 49.1224C16.7737 45.9587 8.12813 62.2326 3.83967 55.942C-1.33791 48.3471 20.8112 49.0791 21.1011 39.8885C21.4115 30.0458 -2.04447 31.2681 2.41777 22.9602C6.8156 14.7721 17.4845 34.1309 25.3762 29.2119C34.2908 23.6553 16.0585 4.44631 26.3535 2.36444C36.8086 0.250191 25.8377 24.2966 35.8589 27.9271C45.5077 31.4227 52.7652 7.94761 59.2474 15.8946C64.9764 22.9181 40.1783 27.4737 41.403 38.7036C42.6007 49.6855 68.0807 47.3953 62.8574 57.1408C57.6169 66.9185 44.5277 42.4997 35.6156 49.1149C28.5989 54.3233 40.0706 69.4233 31.4049 70.5387C22.1809 71.726 33.0545 52.6592 24.4608 49.1224Z" stroke="#254C7B" stroke-width="3.41875"/>
</svg>
